<?xml version="1.0" encoding="UTF-8" standalone="no"?>
<!-- Created with Inkscape (http://www.inkscape.org/) -->

<svg
   width="46mm"
   height="46mm"
   viewBox="0 0 46 45.999999"
   version="1.1"
   id="svg1"
   xml:space="preserve"
   sodipodi:docname="OverheadLight.svg"
   inkscape:export-filename="WaterHeater.svg"
   inkscape:export-xdpi="96"
   inkscape:export-ydpi="96"
   xmlns:inkscape="http://www.inkscape.org/namespaces/inkscape"
   xmlns:sodipodi="http://sodipodi.sourceforge.net/DTD/sodipodi-0.dtd"
   xmlns:xlink="http://www.w3.org/1999/xlink"
   xmlns="http://www.w3.org/2000/svg"
   xmlns:svg="http://www.w3.org/2000/svg"><style
     id="style6">&#10;.measure-arrow&#10;{&#10;}&#10;.measure-label&#10;{&#10;&#10;}&#10;.measure-line&#10;{&#10;}</style><sodipodi:namedview
     id="namedview1"
     pagecolor="#505050"
     bordercolor="#eeeeee"
     borderopacity="1"
     inkscape:showpageshadow="0"
     inkscape:pageopacity="0"
     inkscape:pagecheckerboard="0"
     inkscape:deskcolor="#d1d1d1"
     inkscape:document-units="mm"
     showgrid="false"
     inkscape:zoom="4.4152037"
     inkscape:cx="468.38156"
     inkscape:cy="216.41131"
     inkscape:window-width="1696"
     inkscape:window-height="926"
     inkscape:window-x="187"
     inkscape:window-y="105"
     inkscape:window-maximized="0"
     inkscape:current-layer="layer1" /><defs
     id="defs1"><linearGradient
       id="swatch1"
       inkscape:swatch="solid"><stop
         style="stop-color:#000000;stop-opacity:1;"
         offset="0"
         id="stop1" /></linearGradient><linearGradient
       inkscape:collect="always"
       xlink:href="#swatch1"
       id="linearGradient1"
       gradientUnits="userSpaceOnUse"
       gradientTransform="matrix(1.3424032,0,0,1.3996624,-27.17859,-37.520945)"
       x1="84.070084"
       y1="54.431793"
       x2="114.30962"
       y2="54.431793" /><linearGradient
       inkscape:collect="always"
       xlink:href="#swatch1"
       id="linearGradient2"
       gradientUnits="userSpaceOnUse"
       gradientTransform="matrix(1.1132125,0,0,1.1606956,-4.445198,-24.513554)"
       x1="84.070084"
       y1="54.431793"
       x2="114.30962"
       y2="54.431793" /><linearGradient
       inkscape:collect="always"
       xlink:href="#swatch1"
       id="linearGradient3"
       gradientUnits="userSpaceOnUse"
       gradientTransform="matrix(0.88402147,0,0,0.92172893,18.288222,-11.506166)"
       x1="84.070084"
       y1="54.431793"
       x2="114.30962"
       y2="54.431793" /><linearGradient
       inkscape:collect="always"
       xlink:href="#swatch1"
       id="linearGradient4"
       gradientUnits="userSpaceOnUse"
       gradientTransform="matrix(0.65483072,0,0,0.68276224,41.021619,1.5012217)"
       x1="84.070084"
       y1="54.431793"
       x2="114.30962"
       y2="54.431793" /></defs><g
     inkscape:label="Layer 1"
     inkscape:groupmode="layer"
     id="layer1"
     transform="translate(-82.974183,-15.665194)"><g
       id="g11"><path
         id="ellipse1-3-3"
         style="fill-opacity:0;stroke:url(#linearGradient1);stroke-width:0.75;stroke-dasharray:none"
         d="M 126.09342,38.665194 A 20.119238,20.119241 0 0 1 105.97418,58.784435 20.119238,20.119241 0 0 1 85.854942,38.665194 20.119238,20.119241 0 0 1 105.97418,18.545954 20.119238,20.119241 0 0 1 126.09342,38.665194 Z" /><path
         id="ellipse1-3-3-0"
         style="fill-opacity:0;stroke:url(#linearGradient2);stroke-width:0.75;stroke-dasharray:none"
         d="M 122.65843,38.665194 A 16.684247,16.684249 0 0 1 105.97418,55.349443 16.684247,16.684249 0 0 1 89.289931,38.665194 16.684247,16.684249 0 0 1 105.97418,21.980946 16.684247,16.684249 0 0 1 122.65843,38.665194 Z" /><path
         id="ellipse1-3-3-0-5"
         style="fill-opacity:0;stroke:url(#linearGradient3);stroke-width:0.75;stroke-dasharray:none"
         d="M 119.22344,38.665194 A 13.249252,13.249257 0 0 1 105.97418,51.914451 13.249252,13.249257 0 0 1 92.724924,38.665194 13.249252,13.249257 0 0 1 105.97418,25.415938 13.249252,13.249257 0 0 1 119.22344,38.665194 Z" /><path
         id="ellipse1-3-3-0-5-4"
         style="fill:#000000;fill-opacity:1;stroke:url(#linearGradient4);stroke-width:0.75;stroke-dasharray:none"
         d="m 115.78845,38.665194 a 9.8142612,9.8142646 0 0 1 -9.81426,9.814265 9.8142612,9.8142646 0 0 1 -9.814273,-9.814265 9.8142612,9.8142646 0 0 1 9.814273,-9.814265 9.8142612,9.8142646 0 0 1 9.81426,9.814265 z" /><rect
         style="fill:none;fill-opacity:1;stroke:#000000;stroke-width:0.75;stroke-dasharray:none;stroke-opacity:1"
         id="rect1"
         width="45.161194"
         height="45.161194"
         x="83.393585"
         y="16.084597" /><path
         style="fill:#000000;fill-opacity:1;stroke:#000000;stroke-width:0.750001;stroke-opacity:1"
         d="m 105.97418,18.545954 10e-6,10.304975"
         id="path4" /><path
         style="fill:#000000;fill-opacity:1;stroke:#000000;stroke-width:0.750001;stroke-opacity:1"
         d="M 96.159917,38.665194 H 85.854942"
         id="path5" /><path
         style="fill:#000000;fill-opacity:1;stroke:#000000;stroke-width:0.750001;stroke-opacity:1"
         d="m 115.78845,38.665194 h 10.30497"
         id="path6" /><path
         style="fill:#000000;fill-opacity:1;stroke:#000000;stroke-width:0.750001;stroke-opacity:1"
         d="m 105.97419,48.479459 -10e-6,10.304976"
         id="path7" /><path
         style="fill:#000000;fill-opacity:1;stroke:#000000;stroke-width:0.750001;stroke-opacity:1"
         d="m 113.33395,45.157779 7.60699,7.007416"
         id="path8" /><path
         style="fill:#000000;fill-opacity:1;stroke:#000000;stroke-width:0.750001;stroke-opacity:1"
         d="M 99.282536,31.48594 92.474181,23.698441"
         id="path9" /><path
         style="fill:#000000;fill-opacity:1;stroke:#000000;stroke-width:0.75;stroke-dasharray:none;stroke-opacity:1"
         d="m 113.07988,31.732762 7.06796,-7.34662"
         id="path10" /><path
         style="fill:#000000;fill-opacity:1;stroke:#000000;stroke-width:0.750001;stroke-opacity:1"
         d="m 99.564855,45.872136 -7.372993,7.759811"
         id="path11" /></g></g></svg>
