<?xml version="1.0" encoding="UTF-8" standalone="no"?>
<!-- Created with Inkscape (http://www.inkscape.org/) -->

<svg
   width="24.029213mm"
   height="23.362505mm"
   viewBox="0 0 24.029213 23.362505"
   version="1.1"
   id="svg1"
   inkscape:export-filename="Cabinet.svg"
   inkscape:export-xdpi="96"
   inkscape:export-ydpi="96"
   sodipodi:docname="Cabinet.svg"
   xmlns:inkscape="http://www.inkscape.org/namespaces/inkscape"
   xmlns:sodipodi="http://sodipodi.sourceforge.net/DTD/sodipodi-0.dtd"
   xmlns="http://www.w3.org/2000/svg"
   xmlns:svg="http://www.w3.org/2000/svg">
  <sodipodi:namedview
     id="namedview1"
     pagecolor="#505050"
     bordercolor="#eeeeee"
     borderopacity="1"
     inkscape:showpageshadow="0"
     inkscape:pageopacity="0"
     inkscape:pagecheckerboard="0"
     inkscape:deskcolor="#d1d1d1"
     inkscape:document-units="mm" />
  <defs
     id="defs1">
    <inkscape:path-effect
       effect="fillet_chamfer"
       id="path-effect3-5"
       is_visible="true"
       lpeversion="1"
       nodesatellites_param="F,0,0,1,0,1.5875,0,1 @ F,0,0,1,0,1.5875,0,1 @ F,0,0,1,0,1.5875,0,1 @ F,0,0,1,0,1.5875,0,1"
       radius="6"
       unit="px"
       method="auto"
       mode="F"
       chamfer_steps="1"
       flexible="false"
       use_knot_distance="true"
       apply_no_radius="true"
       apply_with_radius="true"
       only_selected="false"
       hide_knots="false" />
    <inkscape:path-effect
       effect="fillet_chamfer"
       id="path-effect3-1-93"
       is_visible="true"
       lpeversion="1"
       nodesatellites_param="F,0,0,1,0,1.5875,0,1 @ F,0,0,1,0,1.5875,0,1 @ F,0,0,1,0,1.5875,0,1 @ F,0,0,1,0,1.5875,0,1"
       radius="6"
       unit="px"
       method="auto"
       mode="F"
       chamfer_steps="1"
       flexible="false"
       use_knot_distance="true"
       apply_no_radius="true"
       apply_with_radius="true"
       only_selected="false"
       hide_knots="false" />
  </defs>
  <g
     inkscape:label="Layer 1"
     inkscape:groupmode="layer"
     id="layer1"
     transform="translate(-40.029742,-56.245817)">
    <g
       id="g8">
      <path
         id="rect2"
         style="fill:none;stroke:#000000;stroke-width:0.776656"
         d="M 43.72833,62.311985 A 6.35,6.35 0 0 1 48.850866,59.7146 v 0 h 6.523345 a 6.35,6.35 0 0 1 5.057066,2.509611" />
      <path
         id="path7"
         style="fill:none;stroke:#000000;stroke-width:0.776656"
         d="m 60.446238,76.408552 a 6.35,6.35 0 0 1 -5.072027,2.529392 h -6.523345 a 6.35,6.35 0 0 1 -5.122537,-2.597385" />
      <path
         style="fill:none;stroke:#000000;stroke-width:0.75;stroke-dasharray:none"
         id="rect3-5"
         width="3.3503594"
         height="19.611671"
         x="61.724213"
         y="59.7146"
         inkscape:path-effect="#path-effect3-5"
         sodipodi:type="rect"
         d="m 63.311713,59.7146 h 0.175359 a 1.5875,1.5875 45 0 1 1.5875,1.5875 v 16.436671 a 1.5875,1.5875 135 0 1 -1.5875,1.5875 h -0.175359 a 1.5875,1.5875 45 0 1 -1.5875,-1.5875 l 0,-16.436671 a 1.5875,1.5875 135 0 1 1.5875,-1.5875 z"
         transform="matrix(0.97554634,0,0,0.98222741,0.20986616,1.323549)" />
      <path
         style="fill:none;stroke:#000000;stroke-width:0.75;stroke-dasharray:none"
         id="rect3-6-7"
         width="3.3503594"
         height="19.611671"
         x="61.724213"
         y="59.7146"
         inkscape:path-effect="#path-effect3-1-93"
         sodipodi:type="rect"
         d="m 63.311713,59.7146 h 0.175359 a 1.5875,1.5875 45 0 1 1.5875,1.5875 v 16.436671 a 1.5875,1.5875 135 0 1 -1.5875,1.5875 h -0.175359 a 1.5875,1.5875 45 0 1 -1.5875,-1.5875 l 0,-16.436671 a 1.5875,1.5875 135 0 1 1.5875,-1.5875 z"
         transform="matrix(0.97554634,0,0,0.98222741,-19.819258,1.323549)" />
      <path
         id="rect4"
         d="m 45.198583,57.432932 6.978727,-0.809633 7.073695,0.809633 c 0.435532,0.04985 0.79375,0.355374 0.79375,0.79375 v 0.208401 c 0,0.438376 -0.355374,0.79375 -0.79375,0.79375 L 52.112539,58.4192 45.198583,59.228833 c -0.435401,0.05099 -0.79375,-0.355374 -0.79375,-0.79375 v -0.208401 c 0,-0.438376 0.355374,-0.79375 0.79375,-0.79375 z"
         style="fill:none;fill-opacity:1;stroke:#000000;stroke-width:0.750001;stroke-dasharray:none"
         sodipodi:nodetypes="scsssscssss" />
    </g>
  </g>
</svg>
